<svg xmlns="http://www.w3.org/2000/svg" xmlns:xlink="http://www.w3.org/1999/xlink" version="1.1" width="380" height="380" viewBox="0,0,380,380"><g fill="#e91e63" fill-rule="nonzero" stroke="#e91e63" stroke-width="0" stroke-linecap="butt" stroke-linejoin="miter" stroke-miterlimit="10" stroke-dasharray="" stroke-dashoffset="0" font-family="none" font-weight="none" font-size="none" text-anchor="none" style="mix-blend-mode: normal"><g><path d="M132.78407,174.38785c8.98345,-15.5906 15.75626,-18.64184 33.78319,-18.64569c18.02693,-0.00385 47.23018,10.94175 56.24031,26.54775c9.01013,15.606 8.90902,22.66908 -0.10778,38.27893c-9.0168,15.60985 -37.61032,26.13369 -55.6039,26.11829c-17.99358,-0.0154 -25.28942,3.5814 -34.39959,-11.96684c-9.11017,-15.54824 -8.89569,-44.74185 0.08776,-60.33245z" id="blob"/><path d="M134.52437,147.08036c18.3633,-15.16395 28.17392,-15.80735 50.52392,-7.45647c22.35,8.35088 53.48027,35.45628 57.41672,58.97953c3.93644,23.52325 0.53729,32.23258 -17.87627,47.40494c-18.41356,15.17236 -58.73923,14.96553 -81.03897,6.60624c-22.29974,-8.35929 -33.01164,-7.28198 -37.09888,-30.77999c-4.08723,-23.49801 9.71018,-59.5903 28.07348,-74.75425z" id="blob" opacity="0.85714"/><path d="M151.03582,119.25333c28.01359,-9.67268 39.72961,-6.14705 62.14216,13.32748c22.41255,19.47453 46.88623,64.63657 41.22294,93.77168c-5.66329,29.13511 -13.42112,37.80563 -41.49696,47.46621c-28.07584,9.66058 -74.99077,-8.15498 -97.34107,-27.61741c-22.3503,-19.46243 -35.30599,-22.87507 -29.82946,-52.04648c5.47653,-29.17141 37.28881,-65.2288 65.30239,-74.90148z" id="blob" opacity="0.71429"/><path d="M182.22919,98.15607c35.44658,0.89784 47.09904,9.75787 64.05612,40.97304c16.95709,31.21517 25.46098,92.08095 6.9068,122.35863c-18.55419,30.27768 -30.88101,36.74389 -66.39229,35.8064c-35.51128,-0.93749 -80.62234,-40.55996 -97.51473,-71.73549c-16.89239,-31.17552 -29.98145,-40.42835 -11.62135,-70.82497c18.3601,-30.39662 69.11887,-57.47545 104.56545,-56.57761z" id="blob" opacity="0.57143"/><path d="M224.7244,90.65077c38.28682,15.43077 47.38102,29.84298 53.14539,70.79517c5.76437,40.95219 -9.77774,110.7906 -42.35457,136.24241c-32.57683,25.45181 -48.65496,27.47721 -86.99617,11.97683c-38.3412,-15.50038 -71.3785,-77.09884 -77.08849,-117.98142c-5.70999,-40.88258 -16.21059,-56.30882 16.20308,-81.96946c32.41368,-25.66063 98.80394,-34.4943 137.09076,-19.06353z" id="blob" opacity="0.42857"/><path d="M272.20642,101.81265c34.75362,31.79114 38.71414,50.82844 28.5106,96.9002c-10.20354,46.07176 -54.72157,114.50219 -99.70904,128.68669c-44.98747,14.18449 -62.98059,9.92442 -97.76452,-21.96285c-34.78393,-31.88727 -45.47863,-110.92323 -35.24478,-156.89887c10.23385,-45.97564 5.17541,-66.65869 50.07195,-81.13157c44.89654,-14.47288 119.38216,2.61525 154.13578,34.40639z" id="blob" opacity="0.28571"/><path d="M316.34319,133.76475c24.06658,47.13354 20.74378,68.7276 -8.12368,113.20039c-28.86747,44.47279 -102.64684,98.9743 -155.57496,96.20045c-52.92812,-2.77385 -70.18851,-14.33746 -94.24916,-61.5841c-24.06065,-47.24664 -4.21621,-134.63557 24.64532,-178.99527c28.86154,-44.3597 31.67644,-68.11784 84.62234,-65.68328c52.9459,2.43456 124.61356,49.72825 148.68014,96.86179z" id="blob" opacity="0.14286"/></g></g></svg>
