<svg xmlns="http://www.w3.org/2000/svg" width="460" height="370" viewBox="0 0 4600 3700"><g fill="rgb(106,252,255)"><g><path d="M2242 1733 l3 -497 61 -35 c33 -20 212 -124 397 -231 l336 -195 3 -18 3 -18 18 13 17 13 7 483 6 482 9 0 c25 0 -3 23 -94 75 -57 32 -213 125 -348 205 l-245 147 -37 12 -38 13 0 9 c0 12 -55 39 -80 39 l-20 0 2 -497z"></path></g></g><g fill="rgb(116,250,200)"><g><path d="M1398 3191 c-3 -245 -3 -462 -1 -481 l5 -35 131 -74 c73 -41 250 -141 394 -223 l261 -148 34 0 35 0 6 453 7 452 6 23 7 23 -10 -3 -10 -3 -344 196 c-368 211 -462 261 -495 264 l-21 3 -5 -447z"></path></g></g><g fill="rgb(245,100,183)"><g><path d="M3080 3633 c0 -5 -1 -221 -2 -481 l-3 -474 185 -105 c193 -109 282 -161 488 -283 l124 -73 -26 -16 -26 -16 0 -12 0 -13 -25 0 -25 0 0 -20 0 -20 48 27 c27 16 58 35 69 43 l21 15 6 490 7 490 -399 228 -398 227 -22 0 -22 0 0 -7z"></path></g></g><g fill="rgb(72,202,241)"><g><path d="M2229 2178 c0 -13 0 -223 1 -468 l1 -445 -238 -137 c-131 -75 -313 -178 -404 -228 l-167 -92 5 -16 4 -17 346 -200 c190 -110 379 -218 419 -240 l73 -40 28 16 c201 115 537 309 645 373 l138 81 0 10 0 10 -223 128 c-122 70 -305 176 -407 235 l-185 108 -3 472 -2 472 -15 0 -15 0 -1 -22z"></path></g></g><g fill="rgb(76,200,150)"><g><path d="M2248 2878 c-1 -2 -5 -146 -8 -321 l-5 -319 -71 39 c-39 21 -222 124 -407 228 l-337 190 0 22 c0 28 -10 53 -21 53 l-9 0 0 -33 0 -33 -322 -186 c-178 -102 -358 -205 -401 -229 l-77 -44 2 -14 3 -14 415 -237 415 -237 3 -17 4 -17 12 3 c10 3 659 373 766 438 l45 27 4 24 c2 13 6 171 8 352 l4 327 -11 0 c-5 0 -11 -1 -12 -2z"></path></g></g><g fill="rgb(50,152,191)"><g><path d="M2246 2254 l-6 -15 -12 7 -13 7 13 -14 c6 -7 12 -20 12 -28 l0 -16 -53 -29 c-150 -83 -734 -420 -744 -430 l-12 -11 -2 -465 -2 -464 10 -3 9 -3 229 128 c127 70 308 172 403 227 l172 100 1 460 c0 253 1 470 2 483 l1 22 11 0 12 0 -5 30 -4 30 -8 0 c-4 0 -11 -7 -14 -16z"></path></g></g><g fill="rgb(203,50,133)"><g><path d="M2308 3197 l-58 -32 0 -460 0 -460 -6 -22 -6 -22 19 5 18 5 125 -72 c389 -225 563 -323 627 -357 l72 -37 48 24 c66 32 668 377 720 413 24 16 43 32 43 36 0 4 -21 20 -47 36 -98 59 -404 237 -583 339 l-185 105 -3 76 -3 76 -16 0 -15 0 4 -74 3 -73 -35 -20 c-19 -11 -192 -110 -385 -221 l-350 -202 -3 427 -3 428 6 33 6 32 22 0 c12 0 28 4 35 9 l14 8 -4 16 -3 15 -57 -31z"></path></g></g><g fill="rgb(49,150,100)"><g><path d="M1340 3593 c-190 -105 -717 -407 -728 -417 l-12 -12 -3 -472 -2 -472 13 5 c10 3 462 262 750 429 l52 30 0 301 c0 165 3 378 7 473 l6 172 -9 0 c-5 -1 -38 -17 -74 -37z"></path></g></g><g fill="rgb(156,0,83)"><g><path d="M2890 3526 c-102 -57 -282 -160 -400 -228 l-215 -124 -3 -477 -2 -477 5 0 c4 0 528 299 746 426 l66 39 2 472 2 473 -8 0 c-5 0 -92 -47 -193 -104z"></path></g></g></svg>
