<svg width="84px" height="14px" viewBox="0 0 84 14" version="1.1" xmlns="http://www.w3.org/2000/svg" xmlns:xlink="http://www.w3.org/1999/xlink"><g id="Page-1" stroke="none" stroke-width="1" fill="none" fill-rule="evenodd"><path d="M4.07421875,11.1640625 C4.93554688,11.1640625 5.67382812,10.8245443 6.2890625,10.1455078 C6.90429688,9.46647135 7.21191406,8.50488281 7.21191406,7.26074219 C7.21191406,6.73665365 7.1389974,6.24446615 6.99316406,5.78417969 C6.84733073,5.32389323 6.64567057,4.93082682 6.38818359,4.60498047 C6.13069661,4.27913411 5.80257161,4.02620443 5.40380859,3.84619141 C5.00504557,3.66617839 4.58235677,3.57617188 4.13574219,3.57617188 C3.32910156,3.57617188 2.66601562,3.90201823 2.14648438,4.55371094 L2.14648438,4.55371094 L2.14648438,0.978515625 L0.916015625,0.978515625 L0.916015625,11 L2.05761719,11 L2.05761719,10.0908203 C2.5452474,10.8063151 3.21744792,11.1640625 4.07421875,11.1640625 Z M3.97167969,10.1523438 C3.3108724,10.1523438 2.78678385,9.83561198 2.39941406,9.20214844 C2.1624349,8.81477865 2.04394531,8.1858724 2.04394531,7.31542969 C2.04394531,6.4313151 2.23990885,5.75569661 2.63183594,5.28857422 C3.02376302,4.82145182 3.48860677,4.58789062 4.02636719,4.58789062 C4.55957031,4.58789062 5.01416016,4.81347656 5.39013672,5.26464844 C5.76611328,5.71582031 5.95410156,6.41536458 5.95410156,7.36328125 C5.95410156,8.28841146 5.75813802,8.98453776 5.36621094,9.45166016 C4.97428385,9.91878255 4.5094401,10.1523438 3.97167969,10.1523438 Z M11.0075304,11.1640625 C11.9782335,11.1640625 12.7461372,10.7539062 13.3112413,9.93359375 L13.3112413,9.93359375 L13.3112413,11 L14.4118273,11 L14.4118273,3.74023438 L13.1813585,3.74023438 L13.1813585,7.62988281 C13.1813585,8.24967448 13.1141385,8.72249349 12.9796984,9.04833984 C12.8452582,9.3741862 12.6162543,9.63167318 12.2926866,9.82080078 C11.9691189,10.0099284 11.6227648,10.1044922 11.2536241,10.1044922 C10.8844835,10.1044922 10.5745877,10.012207 10.3239366,9.82763672 C10.0732856,9.64306641 9.90922309,9.3889974 9.83174913,9.06542969 C9.78161892,8.8421224 9.75655382,8.40917969 9.75655382,7.76660156 L9.75655382,7.76660156 L9.75655382,3.74023438 L8.52608507,3.74023438 L8.52608507,8.23828125 C8.52608507,8.76236979 8.55115017,9.14518229 8.60128038,9.38671875 C8.67419705,9.74674479 8.80066189,10.050944 8.98067491,10.2993164 C9.16068793,10.5476888 9.43640408,10.7539062 9.80782335,10.9179688 C10.1792426,11.0820312 10.579145,11.1640625 11.0075304,11.1640625 Z M16.9222873,13.9462891 C17.3142144,13.9462891 17.651454,13.8517253 17.9340061,13.6625977 C18.2165582,13.4734701 18.4672092,13.1761068 18.6859592,12.7705078 C18.8500217,12.4697266 19.0801649,11.9205729 19.3763889,11.1230469 L19.3763889,11.1230469 L22.1381076,3.74023438 L20.9076389,3.74023438 L19.3558811,7.97167969 C19.1599175,8.5094401 18.9912977,9.0608724 18.8500217,9.62597656 C18.6950738,9.03808594 18.5196181,8.47753906 18.3236545,7.94433594 L18.3236545,7.94433594 L16.8129123,3.74023438 L15.4867405,3.74023438 L18.2416233,11.0136719 C18.1914931,11.1458333 18.1550347,11.2460938 18.1322483,11.3144531 C17.9590712,11.8020833 17.8337457,12.1074219 17.7562717,12.2304688 C17.651454,12.3945312 17.5170139,12.5221354 17.3529514,12.6132812 C17.1888889,12.7044271 16.9701389,12.75 16.6967014,12.75 C16.4961806,12.75 16.26148,12.7135417 15.9925998,12.640625 L15.9925998,12.640625 L16.1293186,13.7958984 C16.4209852,13.8961589 16.6853082,13.9462891 16.9222873,13.9462891 Z M32.6209418,13.7822266 L32.6209418,3.74023438 L31.51352,3.74023438 L31.51352,4.7109375 C30.998546,3.95442708 30.2921658,3.57617188 29.3943793,3.57617188 C28.8201606,3.57617188 28.2926541,3.72542318 27.8118598,4.02392578 C27.3310655,4.32242839 26.9642036,4.76106771 26.7112739,5.33984375 C26.4583442,5.91861979 26.3318793,6.57259115 26.3318793,7.30175781 C26.3318793,8.50032552 26.6429145,9.4436849 27.2649848,10.1318359 C27.8870551,10.819987 28.6287543,11.1640625 29.4900825,11.1640625 C29.8774523,11.1640625 30.2431749,11.0751953 30.5872504,10.8974609 C30.931326,10.7197266 31.1990668,10.4964193 31.3904731,10.2275391 L31.3904731,10.2275391 L31.3904731,13.7822266 L32.6209418,13.7822266 Z M29.5926215,10.1523438 C29.0457465,10.1523438 28.5763455,9.91878255 28.1844184,9.45166016 C27.7924913,8.98453776 27.5965278,8.28385417 27.5965278,7.34960938 C27.5965278,6.38802083 27.7822374,5.6805013 28.1536567,5.22705078 C28.525076,4.77360026 28.9773872,4.546875 29.5105903,4.546875 C30.0483507,4.546875 30.5166124,4.7906901 30.9153754,5.27832031 C31.3141385,5.76595052 31.51352,6.49283854 31.51352,7.45898438 C31.51352,8.36588542 31.3243924,9.04150391 30.9461372,9.48583984 C30.5678819,9.93017578 30.1167101,10.1523438 29.5926215,10.1523438 Z M36.8472222,11.1640625 C37.8179253,11.1640625 38.585829,10.7539062 39.1509332,9.93359375 L39.1509332,9.93359375 L39.1509332,11 L40.2515191,11 L40.2515191,3.74023438 L39.0210503,3.74023438 L39.0210503,7.62988281 C39.0210503,8.24967448 38.9538303,8.72249349 38.8193902,9.04833984 C38.6849501,9.3741862 38.4559462,9.63167318 38.1323785,9.82080078 C37.8088108,10.0099284 37.4624566,10.1044922 37.093316,10.1044922 C36.7241753,10.1044922 36.4142795,10.012207 36.1636285,9.82763672 C35.9129774,9.64306641 35.7489149,9.3889974 35.671441,9.06542969 C35.6213108,8.8421224 35.5962457,8.40917969 35.5962457,7.76660156 L35.5962457,7.76660156 L35.5962457,3.74023438 L34.3657769,3.74023438 L34.3657769,8.23828125 C34.3657769,8.76236979 34.390842,9.14518229 34.4409722,9.38671875 C34.5138889,9.74674479 34.6403537,10.050944 34.8203668,10.2993164 C35.0003798,10.5476888 35.2760959,10.7539062 35.6475152,10.9179688 C36.0189345,11.0820312 36.4188368,11.1640625 36.8472222,11.1640625 Z M43.2610026,2.39355469 L43.2610026,0.978515625 L42.0305339,0.978515625 L42.0305339,2.39355469 L43.2610026,2.39355469 Z M43.2610026,11 L43.2610026,3.74023438 L42.0305339,3.74023438 L42.0305339,11 L43.2610026,11 Z M47.9042752,11.1640625 C48.6972439,11.1640625 49.3660265,10.9282227 49.9106228,10.456543 C50.4552192,9.98486328 50.7935981,9.33203125 50.9257595,8.49804688 L50.9257595,8.49804688 L49.7157986,8.34082031 C49.6292101,8.95605469 49.4241319,9.41178385 49.1005642,9.70800781 C48.7769965,10.0042318 48.3736762,10.1523438 47.8906033,10.1523438 C47.2890408,10.1523438 46.8014106,9.9313151 46.4277127,9.48925781 C46.0540148,9.04720052 45.8671658,8.33854167 45.8671658,7.36328125 C45.8671658,6.40169271 46.0608507,5.69873047 46.4482205,5.25439453 C46.8355903,4.81005859 47.339171,4.58789062 47.9589627,4.58789062 C48.3691189,4.58789062 48.7188911,4.7109375 49.0082791,4.95703125 C49.2976671,5.203125 49.4993273,5.56998698 49.6132595,6.05761719 L49.6132595,6.05761719 L50.8095486,5.87304688 C50.6682726,5.13932292 50.3469835,4.57307943 49.8456814,4.17431641 C49.3443793,3.77555339 48.6995226,3.57617188 47.9111111,3.57617188 C47.2867622,3.57617188 46.7091254,3.72314453 46.178201,4.01708984 C45.6472765,4.31103516 45.2519314,4.75195312 44.9921658,5.33984375 C44.7324002,5.92773438 44.6025174,6.61360677 44.6025174,7.39746094 C44.6025174,8.60970052 44.9044379,9.54052734 45.5082791,10.1899414 C46.1121202,10.8393555 46.9107856,11.1640625 47.9042752,11.1640625 Z M53.0602431,11 L53.0602431,8.12207031 L53.9284071,7.28808594 L56.3278212,11 L57.8453993,11 L54.7897352,6.43359375 L57.5651259,3.74023438 L55.9723524,3.74023438 L53.0602431,6.69335938 L53.0602431,0.978515625 L51.8297743,0.978515625 L51.8297743,11 L53.0602431,11 Z M59.8705078,11 L59.8705078,0.978515625 L58.6400391,0.978515625 L58.6400391,11 L59.8705078,11 Z M62.3604601,13.9462891 C62.7523872,13.9462891 63.0896267,13.8517253 63.3721788,13.6625977 C63.6547309,13.4734701 63.9053819,13.1761068 64.1241319,12.7705078 C64.2881944,12.4697266 64.5183377,11.9205729 64.8145616,11.1230469 L64.8145616,11.1230469 L67.5762804,3.74023438 L66.3458116,3.74023438 L64.7940538,7.97167969 C64.5980903,8.5094401 64.4294705,9.0608724 64.2881944,9.62597656 C64.1332465,9.03808594 63.9577908,8.47753906 63.7618273,7.94433594 L63.7618273,7.94433594 L62.2510851,3.74023438 L60.9249132,3.74023438 L63.679796,11.0136719 C63.6296658,11.1458333 63.5932075,11.2460938 63.570421,11.3144531 C63.3972439,11.8020833 63.2719184,12.1074219 63.1944444,12.2304688 C63.0896267,12.3945312 62.9551866,12.5221354 62.7911241,12.6132812 C62.6270616,12.7044271 62.4083116,12.75 62.1348741,12.75 C61.9343533,12.75 61.6996528,12.7135417 61.4307726,12.640625 L61.4307726,12.640625 L61.5674913,13.7958984 C61.859158,13.8961589 62.1234809,13.9462891 62.3604601,13.9462891 Z M73.9438802,5.14160156 L73.9438802,3.74023438 L72.542513,3.74023438 L72.542513,5.14160156 L73.9438802,5.14160156 Z M73.9438802,11 L73.9438802,9.59863281 L72.542513,9.59863281 L72.542513,11 L73.9438802,11 Z M79.2365668,7.9921875 L79.2365668,6.75488281 L75.4562934,6.75488281 L75.4562934,7.9921875 L79.2365668,7.9921875 Z M81.2480035,13.9462891 C81.9224826,13.0895182 82.4955621,12.0869141 82.9672418,10.9384766 C83.4389214,9.79003906 83.6747613,8.60058594 83.6747613,7.37011719 C83.6747613,6.28548177 83.4993056,5.24641927 83.1483941,4.25292969 C82.7382378,3.0999349 82.1047743,1.9514974 81.2480035,0.807617188 L81.2480035,0.807617188 L80.3661675,0.807617188 C80.9221571,1.76464844 81.2890191,2.44824219 81.4667535,2.85839844 C81.7447483,3.48730469 81.9612196,4.14355469 82.1161675,4.82714844 C82.3121311,5.6702474 82.4101128,6.52018229 82.4101128,7.37695312 C82.4101128,9.56901042 81.7287977,11.7587891 80.3661675,13.9462891 L80.3661675,13.9462891 L81.2480035,13.9462891 Z" id="shape" fill="#FFFFFF" fill-rule="nonzero"></path></g></svg>
